M48
; DRILL file {KiCad 9.0.1} date 2025-06-10T23:29:58+0600
; FORMAT={-:-/ absolute / metric / decimal}
; #@! TF.CreationDate,2025-06-10T23:29:58+06:00
; #@! TF.GenerationSoftware,Kicad,Pcbnew,9.0.1
; #@! TF.FileFunction,MixedPlating,1,2
FMAT,2
METRIC
; #@! TA.AperFunction,Plated,PTH,ViaDrill
T1C0.300
; #@! TA.AperFunction,Plated,PTH,ComponentDrill
T2C0.550
; #@! TA.AperFunction,Plated,PTH,ComponentDrill
T3C0.850
; #@! TA.AperFunction,Plated,PTH,ComponentDrill
T4C1.000
; #@! TA.AperFunction,NonPlated,NPTH,ComponentDrill
T5C0.800
; #@! TA.AperFunction,NonPlated,NPTH,ComponentDrill
T6C0.900
; #@! TA.AperFunction,NonPlated,NPTH,ComponentDrill
T7C2.200
%
G90
G05
T1
X76.51Y-32.94
X76.62Y-50.88
X76.63Y-46.94
X78.58Y-43.62
X80.27Y-38.23
X80.76Y-47.91
X81.69Y-41.8
X81.83Y-38.83
X81.89Y-46.75
X82.95Y-37.32
X83.73Y-52.3
X85.23Y-52.3
X86.12Y-48.23
X86.39Y-43.26
X86.88Y-32.35
X87.07Y-52.31
X88.65Y-52.31
X91.25Y-44.72
X96.34Y-40.1
X100.4Y-48.41
X100.7Y-43.4
X100.7Y-44.26
X101.33Y-48.41
X104.8Y-48.78
X104.88Y-39.5
X106.29Y-46.58
T4
X81.92Y-28.3
X81.92Y-54.75
X84.46Y-28.3
X84.46Y-54.75
X87.0Y-28.3
X87.0Y-54.75
X89.54Y-28.3
X89.54Y-54.75
X96.09Y-28.2
X98.63Y-28.2
X101.17Y-28.2
X103.71Y-28.2
T5
X108.07Y-38.33
X108.07Y-43.33
T6
X74.17Y-35.0
X74.17Y-38.0
T7
X75.0Y-29.0
X75.0Y-54.0
X110.0Y-29.0
X110.0Y-54.0
T2
G00X110.495Y-36.955
M15
G01X111.145Y-36.955
M16
G05
G00X110.495Y-44.705
M15
G01X111.145Y-44.705
M16
G05
T3
G00X106.745Y-37.105
M15
G01X107.295Y-37.105
M16
G05
G00X106.745Y-44.555
M15
G01X107.295Y-44.555
M16
G05
M30
